<svg width="144" height="142" viewBox="0 0 144 142" fill="none" xmlns="http://www.w3.org/2000/svg">
<path d="M1.96301 117.2V24.8H15.019V64.576H57.131V24.8H70.187V117.2H57.131V76.736H15.019V117.2H1.96301Z" fill="white"/>
<path d="M1.46301 117.2V117.7H1.96301H15.019H15.519V117.2V77.236H56.631V117.2V117.7H57.131H70.187H70.687V117.2V24.8V24.3H70.187H57.131H56.631V24.8V64.076H15.519V24.8V24.3H15.019H1.96301H1.46301V24.8V117.2Z" stroke="black" stroke-opacity="0.25"/>
<path d="M112.183 117.195C103.052 117.195 95.6995 114.835 89.8113 110.056C84.0085 105.277 80.4671 98.9197 79.187 90.9834L91.8594 87.9113C92.7981 93.7142 95.1449 98.109 98.8996 101.096C102.654 104.082 107.263 105.576 112.724 105.576C115.882 105.576 118.655 105.021 121.044 103.912C123.519 102.717 125.482 101.053 126.933 98.9197C128.383 96.7009 129.109 94.2262 129.109 91.4954C129.109 88.594 128.298 86.2046 126.677 84.3272C125.14 82.4498 122.922 80.7857 120.02 79.335C117.204 77.799 113.791 76.2629 109.78 74.7269C104.574 72.7642 100.094 70.6308 96.3396 68.3267C92.6701 66.0226 89.8113 63.2919 87.7633 60.1344C85.8006 56.8917 84.8192 53.0089 84.8192 48.4861C84.8192 43.8779 85.9286 39.8244 88.1473 36.3257C90.4514 32.7416 93.6515 29.9255 97.7476 27.8774C101.844 25.8293 106.58 24.8053 111.956 24.8053C117.674 24.8053 122.751 26.128 127.189 28.7734C131.711 31.3335 135.295 35.2163 137.941 40.4218L127.573 46.822C125.695 43.4086 123.391 40.8058 120.66 39.0137C118.015 37.2217 114.985 36.3257 111.572 36.3257C108.927 36.3257 106.537 36.8377 104.404 37.8617C102.356 38.8857 100.734 40.2938 99.5397 42.0858C98.4303 43.7926 97.8756 45.8406 97.8756 48.23C97.8756 50.7048 98.5583 52.8382 99.9237 54.6302C101.374 56.4223 103.465 58.0437 106.196 59.4944C109.012 60.8598 112.511 62.3105 116.692 63.8465C121.983 65.8946 126.506 68.1133 130.261 70.5028C134.015 72.8068 136.917 75.5803 138.965 78.823C141.013 82.0658 142.037 86.0339 142.037 90.7274C142.037 95.8476 140.757 100.413 138.197 104.424C135.722 108.349 132.266 111.464 127.829 113.768C123.391 116.072 118.071 117.195 112.183 117.195Z" fill="white"/>
<path d="M89.4935 110.442L89.4963 110.444C95.4901 115.309 102.961 117.695 112.183 117.695C118.133 117.695 123.535 116.561 128.059 114.212C132.568 111.87 136.093 108.698 138.619 104.692C141.234 100.595 142.537 95.9349 142.537 90.7274C142.537 85.9606 141.496 81.8949 139.388 78.556C137.294 75.2406 134.334 72.4164 130.526 70.0787C126.737 67.6684 122.185 65.4365 116.873 63.3803L116.873 63.3802L116.865 63.3772C112.697 61.8462 109.217 60.4032 106.422 59.0485C103.739 57.6219 101.712 56.0427 100.317 54.3214C99.0275 52.6263 98.3756 50.604 98.3756 48.23C98.3756 45.9214 98.9103 43.9727 99.9573 42.3608C101.1 40.6479 102.651 39.2978 104.624 38.3107C106.681 37.3239 108.994 36.8257 111.572 36.8257C114.893 36.8257 117.823 37.6956 120.38 39.4277L120.38 39.4278L120.386 39.4318C123.037 41.1712 125.289 43.7073 127.134 47.063L127.388 47.5236L127.835 47.2475L138.204 40.8473L138.595 40.6055L138.387 40.1953C135.703 34.9152 132.056 30.9555 127.44 28.3411C122.918 25.6466 117.752 24.3053 111.956 24.3053C106.516 24.3053 101.701 25.3418 97.524 27.4302C93.3537 29.5153 90.083 32.3899 87.7267 36.0553L87.725 36.0579C85.4499 39.6456 84.3192 43.7941 84.3192 48.486C84.3192 53.0824 85.3171 57.0586 87.3355 60.3933L87.3396 60.4L87.3438 60.4065C89.437 63.6336 92.3519 66.4132 96.0737 68.7502L96.0781 68.7528C99.8654 71.0769 104.375 73.2232 109.602 75.1942C113.598 76.7246 116.99 78.2516 119.781 79.774L119.789 79.7783L119.797 79.7822C122.655 81.2115 124.81 82.8361 126.29 84.6438L126.289 84.6439L126.298 84.654C127.828 86.4255 128.609 88.6925 128.609 91.4954C128.609 94.1305 127.911 96.5083 126.517 98.6422C125.119 100.695 123.228 102.302 120.83 103.46C118.519 104.532 115.821 105.076 112.724 105.076C107.359 105.076 102.865 103.611 99.2109 100.704C95.5743 97.8117 93.2765 93.5404 92.353 87.8315L92.2667 87.2981L91.7416 87.4254L79.0692 90.4975L78.6197 90.6064L78.6934 91.063C79.9913 99.1103 83.5899 105.58 89.4935 110.442Z" stroke="black" stroke-opacity="0.25"/>
</svg>
